<?xml version="1.0" encoding="utf-8"?>
<!-- Generator: Adobe Illustrator 27.4.1, SVG Export Plug-In . SVG Version: 6.00 Build 0)  -->
<svg version="1.1" id="Layer_1" xmlns="http://www.w3.org/2000/svg" xmlns:xlink="http://www.w3.org/1999/xlink" x="0px" y="0px"
	 viewBox="0 0 120 108" style="enable-background:new 0 0 120 108;" xml:space="preserve">
<style type="text/css">
	.st0{fill:#FFFFFF;}
</style>
<g>
	<g>
		<g>
			<path class="st0" d="M30.7,104.6v-5.4h2v4.9c0,1.2,0.7,1.9,1.7,1.9c1,0,1.6-0.8,1.6-2v-4.8h2v8.4h-2v-1.4h-0.2
				c-0.4,0.9-1.2,1.5-2.4,1.5C31.7,107.6,30.7,106.4,30.7,104.6z"/>
			<path class="st0" d="M73.2,102v5.4h-2v-4.9c0-1.2-0.7-1.9-1.7-1.9c-1,0-1.6,0.8-1.6,2v4.8h-2v-8.4h2v1.4h0.2
				c0.4-0.9,1.2-1.5,2.4-1.5C72.2,99,73.2,100.2,73.2,102z"/>
			<path class="st0" d="M26.8,99c-1.2,0-2.1,0.7-2.4,1.5l-0.1,0l0,0l0,0C23.9,99.5,23,99,22,99c-1.1,0-2,0.5-2.5,1.5h-0.2v-1.4h-2
				v8.4h2v-4.8c0-1.2,0.6-2,1.6-2c1,0,1.6,0.6,1.6,1.9v4.9h2l0,0v-4.8c0-1.2,0.6-2,1.6-2c1,0,1.6,0.6,1.6,1.9v4.9h2V102
				C29.6,100.2,28.6,99,26.8,99z"/>
			<path class="st0" d="M45,106.1c-0.4,0.9-1.5,1.5-2.5,1.5c-2.3,0-3.5-1.9-3.5-4.4c0-2.4,1.3-4.4,3.6-4.4c1.2,0,2.1,0.6,2.5,1.5
				h0.2V96h2v11.5h-2v-1.4L45,106.1L45,106.1z M43,100.6c-1.4,0-2.2,1.1-2.2,2.7s0.8,2.7,2.2,2.7c1.2,0,2.1-0.9,2.1-2.4v-0.5
				C45.2,101.5,44.2,100.6,43,100.6z"/>
			<path class="st0" d="M54.1,106.1c-0.4,0.9-1.5,1.5-2.5,1.5c-2.3,0-3.5-1.9-3.5-4.4c0-2.4,1.3-4.4,3.6-4.4c1.2,0,2.1,0.6,2.5,1.5
				h0.2V96h2v11.5h-2v-1.4L54.1,106.1L54.1,106.1z M52.2,100.6c-1.4,0-2.2,1.1-2.2,2.7s0.8,2.7,2.2,2.7c1.2,0,2.1-0.9,2.1-2.4v-0.5
				C54.3,101.5,53.4,100.6,52.2,100.6z"/>
			<path class="st0" d="M57.1,103.3c0-2.5,1.7-4.4,4.1-4.4c2.5,0,3.8,1.8,3.8,4.1v0.7h-6c0.1,1.4,1,2.2,2.3,2.2c1,0,1.7-0.5,2-1.3
				l1.7,0.6c-0.6,1.5-2,2.3-3.7,2.3C58.9,107.7,57.1,105.9,57.1,103.3z M59.1,102.4h4c0-1.1-0.6-2-1.8-2
				C60.2,100.5,59.4,101.2,59.1,102.4z"/>
			<path class="st0" d="M5.8,102.9c1.8-0.4,2.8-1.8,2.8-3.4c0-2.1-1.5-3.5-4.1-3.5H0.1v11.5h2.1v-4.4h1.4l3,4.4h2.3L5.8,102.9z
				 M2.1,101.3v-3.6h2.2c1.5,0,2.3,0.6,2.3,1.8c0,1.1-0.8,1.8-2.3,1.8H2.1z"/>
			<path class="st0" d="M16.1,105.4v-3.6c0-1.9-1.2-2.9-3.3-2.9c-1.9,0-3.2,1.1-3.6,2.5l1.8,0.4c0.2-0.7,0.7-1.3,1.7-1.3
				c0.9,0,1.5,0.4,1.5,1.3v0.1l-2.4,0.5c-1.7,0.3-2.9,1-2.9,2.6c0,1.5,1.1,2.5,2.8,2.5c1.2,0,2.1-0.5,2.6-1.5h0.2
				c0,1.1,0.8,1.6,2.2,1.4V106C16.2,106,16.1,105.9,16.1,105.4z M14.2,104c0,1.3-1,2.1-2.1,2.1c-0.8,0-1.2-0.4-1.2-1
				c0-0.7,0.6-1.1,1.4-1.3l1.8-0.4V104z"/>
		</g>
		<g>
			<path class="st0" d="M85.6,106.3c-0.5,0.8-1.6,1.4-3.1,1.4c-3,0-5.2-2.4-5.2-5.9c0-3.5,2.2-6,5.3-6c2.3,0,3.9,1.3,4.6,3.3
				l-1.9,0.7c-0.3-1.4-1.3-2.1-2.7-2.1c-1.9,0-3.3,1.6-3.3,4.1s1.3,4.1,3.3,4.1c1.7,0,2.7-1.2,2.8-2.8h-3v-1.8h5v6.2h-1.9V106.3z"/>
			<path class="st0" d="M90.8,107.5h-1.9V96h1.9V107.5z"/>
			<path class="st0" d="M95.9,107.7c-2.4,0-4-1.8-4-4.4c0-2.6,1.7-4.4,4-4.4c2.4,0,4,1.8,4,4.4C99.9,105.9,98.2,107.7,95.9,107.7z
				 M95.9,106.1c1.3,0,2.1-1,2.1-2.7c0-1.7-0.8-2.7-2.1-2.7s-2.1,1-2.1,2.7C93.8,105,94.6,106.1,95.9,106.1z"/>
			<path class="st0" d="M120,107.5h-1.9V96h1.9V107.5z"/>
			<path class="st0" d="M116.7,105.4v-3.6c0-1.9-1.2-2.9-3.3-2.9c-1.9,0-3.2,1.1-3.6,2.5l1.8,0.4c0.2-0.7,0.7-1.3,1.7-1.3
				c0.9,0,1.5,0.4,1.5,1.3v0.1l-2.4,0.5c-1.7,0.3-2.9,1-2.9,2.6c0,1.5,1.1,2.5,2.8,2.5c1.2,0,2.1-0.5,2.6-1.5h0.2
				c0,1.1,0.8,1.6,2.2,1.4V106C116.8,106,116.7,105.9,116.7,105.4z M114.8,104c0,1.3-1,2.1-2.1,2.1c-0.8,0-1.2-0.4-1.2-1
				c0-0.7,0.6-1.1,1.4-1.3l1.8-0.4V104z"/>
			<path class="st0" d="M102.7,106.1v1.4h-2V96h2v4.5h0.2c0.4-0.9,1.3-1.5,2.5-1.5c2.3,0,3.6,2,3.6,4.4c0,2.5-1.2,4.4-3.5,4.4
				c-1.1,0-2.2-0.6-2.5-1.5L102.7,106.1L102.7,106.1z M102.6,103.1v0.5c0,1.5,0.9,2.4,2.1,2.4c1.4,0,2.2-1.1,2.2-2.7
				s-0.8-2.7-2.2-2.7C103.5,100.6,102.6,101.5,102.6,103.1z"/>
		</g>
	</g>
	<g>
		<polygon class="st0" points="60,87.4 120,87.4 90,43.7 		"/>
	</g>
	<g>
		<polygon class="st0" points="0,87.4 60,87.4 30,43.7 		"/>
	</g>
	<g>
		<polygon class="st0" points="30,43.7 90,43.7 60,0 		"/>
	</g>
</g>
</svg>
